<svg xmlns="http://www.w3.org/2000/svg" xmlns:xlink="http://www.w3.org/1999/xlink" width="500" zoomAndPan="magnify" viewBox="0 0 375 374.999991" height="500" preserveAspectRatio="xMidYMid meet" version="1.0"><defs><g/></defs><g fill="#f5f5f5" fill-opacity="1"><g transform="translate(14.701175, 211.124986)"><g><path d="M 31.34375 -42.84375 C 38.6875 -42.84375 44.097656 -41.359375 47.578125 -38.390625 C 51.066406 -35.421875 52.8125 -31.535156 52.8125 -26.734375 C 52.8125 -25.109375 52.59375 -23.296875 52.15625 -21.296875 C 51.132812 -16.867188 49.21875 -12.992188 46.40625 -9.671875 C 43.601562 -6.359375 40.160156 -3.796875 36.078125 -1.984375 C 32.003906 -0.171875 27.59375 0.734375 22.84375 0.734375 C 15.332031 0.734375 9.78125 -0.765625 6.1875 -3.765625 C 2.601562 -6.765625 0.8125 -10.75 0.8125 -15.71875 C 0.8125 -17.382812 1.023438 -19.242188 1.453125 -21.296875 C 2.484375 -25.515625 4.441406 -29.253906 7.328125 -32.515625 C 10.210938 -35.785156 13.75 -38.320312 17.9375 -40.125 C 22.125 -41.9375 26.59375 -42.84375 31.34375 -42.84375 Z M 31.109375 -35.640625 C 29.972656 -35.640625 28.769531 -34.625 27.5 -32.59375 C 26.226562 -30.570312 24.726562 -26.753906 23 -21.140625 C 21.269531 -15.523438 20.40625 -11.582031 20.40625 -9.3125 C 20.40625 -8.125 20.59375 -7.328125 20.96875 -6.921875 C 21.351562 -6.515625 21.867188 -6.3125 22.515625 -6.3125 C 23.648438 -6.207031 24.820312 -7.179688 26.03125 -9.234375 C 27.25 -11.285156 28.78125 -15.28125 30.625 -21.21875 C 32.289062 -26.457031 33.125 -30.265625 33.125 -32.640625 C 33.125 -33.773438 32.945312 -34.554688 32.59375 -34.984375 C 32.25 -35.421875 31.753906 -35.640625 31.109375 -35.640625 Z M 31.109375 -35.640625 "/></g></g></g><g fill="#00adef" fill-opacity="1"><g transform="translate(67.833984, 211.124986)"><g><path d="M 52.890625 -53.953125 C 54.890625 -53.953125 56.441406 -53.519531 57.546875 -52.65625 C 58.660156 -51.789062 59.21875 -50.601562 59.21875 -49.09375 C 59.21875 -48.332031 59.109375 -47.601562 58.890625 -46.90625 L 56.78125 -39.359375 C 56.40625 -37.898438 55.851562 -36.890625 55.125 -36.328125 C 54.394531 -35.765625 53.351562 -35.484375 52 -35.484375 C 50.707031 -35.484375 49.695312 -35.765625 48.96875 -36.328125 C 48.238281 -36.890625 47.679688 -37.820312 47.296875 -39.125 L 46.015625 -43.734375 C 45.742188 -44.710938 45.414062 -45.363281 45.03125 -45.6875 C 44.65625 -46.007812 43.925781 -46.171875 42.84375 -46.171875 L 34.34375 -46.171875 L 30.296875 -31.75 L 33.859375 -31.75 C 34.234375 -31.75 34.742188 -32.019531 35.390625 -32.5625 L 38.15625 -34.984375 C 38.957031 -35.691406 39.65625 -36.207031 40.25 -36.53125 C 40.84375 -36.851562 41.570312 -37.015625 42.4375 -37.015625 C 43.414062 -37.015625 44.210938 -36.757812 44.828125 -36.25 C 45.453125 -35.738281 45.765625 -35.078125 45.765625 -34.265625 C 45.765625 -34.046875 45.710938 -33.722656 45.609375 -33.296875 L 42.28125 -22.03125 C 41.957031 -20.84375 41.40625 -19.960938 40.625 -19.390625 C 39.84375 -18.828125 38.988281 -18.546875 38.0625 -18.546875 C 36.550781 -18.546875 35.421875 -19.328125 34.671875 -20.890625 L 33.296875 -23.734375 C 32.910156 -24.546875 32.316406 -24.953125 31.515625 -24.953125 L 28.34375 -24.953125 L 23.578125 -7.78125 L 30.703125 -7.78125 C 31.722656 -7.78125 32.625 -7.976562 33.40625 -8.375 C 34.195312 -8.78125 35.050781 -9.5 35.96875 -10.53125 L 40.828125 -15.875 C 41.691406 -16.789062 42.515625 -17.453125 43.296875 -17.859375 C 44.078125 -18.265625 45.035156 -18.46875 46.171875 -18.46875 C 47.359375 -18.46875 48.328125 -18.195312 49.078125 -17.65625 C 49.835938 -17.113281 50.21875 -16.304688 50.21875 -15.234375 C 50.21875 -14.796875 50.140625 -14.28125 49.984375 -13.6875 L 47.625 -5.515625 C 47.03125 -3.460938 46.164062 -2.03125 45.03125 -1.21875 C 43.894531 -0.40625 42.25 0 40.09375 0 L 1.453125 0 C 0.316406 0 -0.554688 -0.1875 -1.171875 -0.5625 C -1.796875 -0.945312 -2.109375 -1.460938 -2.109375 -2.109375 C -2.109375 -2.429688 -2.023438 -2.78125 -1.859375 -3.15625 C -1.640625 -3.75 -1.285156 -4.207031 -0.796875 -4.53125 C -0.316406 -4.851562 -0.0234375 -5.046875 0.078125 -5.109375 C 0.941406 -5.640625 1.644531 -6.1875 2.1875 -6.75 C 2.726562 -7.320312 3.1875 -8.257812 3.5625 -9.5625 L 13.53125 -44.46875 C 13.738281 -45.164062 13.84375 -45.8125 13.84375 -46.40625 C 13.84375 -47.0625 13.75 -47.601562 13.5625 -48.03125 C 13.375 -48.46875 13.09375 -48.925781 12.71875 -49.40625 C 12.226562 -50.113281 11.984375 -50.679688 11.984375 -51.109375 C 11.984375 -51.273438 12.039062 -51.570312 12.15625 -52 C 12.363281 -52.707031 12.84375 -53.207031 13.59375 -53.5 C 14.351562 -53.800781 15.460938 -53.953125 16.921875 -53.953125 Z M 52.890625 -53.953125 "/></g></g></g><g fill="#00adef" fill-opacity="1"><g transform="translate(122.177086, 211.124986)"><g><path d="M 77.03125 -11.171875 C 76.925781 -10.960938 76.875 -10.640625 76.875 -10.203125 C 76.875 -9.828125 76.96875 -9.53125 77.15625 -9.3125 C 77.34375 -9.09375 77.597656 -8.984375 77.921875 -8.984375 C 78.566406 -8.984375 79.117188 -9.265625 79.578125 -9.828125 C 80.035156 -10.398438 80.347656 -10.6875 80.515625 -10.6875 C 80.785156 -10.6875 81 -10.507812 81.15625 -10.15625 C 81.320312 -9.8125 81.40625 -9.394531 81.40625 -8.90625 C 81.457031 -7.34375 80.941406 -5.816406 79.859375 -4.328125 C 78.785156 -2.847656 77.207031 -1.632812 75.125 -0.6875 C 73.050781 0.257812 70.554688 0.734375 67.640625 0.734375 C 64.078125 0.734375 61.238281 -0.0859375 59.125 -1.734375 C 57.019531 -3.390625 55.941406 -5.59375 55.890625 -8.34375 C 55.890625 -10.34375 56.375 -12.582031 57.34375 -15.0625 L 61.796875 -26.734375 C 62.066406 -27.429688 62.203125 -28 62.203125 -28.4375 C 62.203125 -29.132812 61.972656 -29.6875 61.515625 -30.09375 C 61.054688 -30.5 60.503906 -30.703125 59.859375 -30.703125 C 58.941406 -30.703125 57.992188 -30.296875 57.015625 -29.484375 C 56.046875 -28.671875 55.1875 -27.398438 54.4375 -25.671875 L 49.984375 -11.171875 C 49.867188 -10.960938 49.8125 -10.640625 49.8125 -10.203125 C 49.8125 -9.828125 49.90625 -9.53125 50.09375 -9.3125 C 50.28125 -9.09375 50.539062 -8.984375 50.875 -8.984375 C 51.519531 -8.984375 52.070312 -9.265625 52.53125 -9.828125 C 52.988281 -10.398438 53.296875 -10.6875 53.453125 -10.6875 C 53.722656 -10.6875 53.9375 -10.507812 54.09375 -10.15625 C 54.257812 -9.8125 54.34375 -9.394531 54.34375 -8.90625 C 54.40625 -7.34375 53.894531 -5.816406 52.8125 -4.328125 C 51.726562 -2.847656 50.144531 -1.632812 48.0625 -0.6875 C 45.988281 0.257812 43.492188 0.734375 40.578125 0.734375 C 37.015625 0.734375 34.179688 -0.0859375 32.078125 -1.734375 C 29.972656 -3.390625 28.894531 -5.59375 28.84375 -8.34375 C 28.84375 -10.34375 29.328125 -12.582031 30.296875 -15.0625 L 34.75 -26.734375 C 35.019531 -27.429688 35.15625 -28 35.15625 -28.4375 C 35.15625 -29.132812 34.925781 -29.6875 34.46875 -30.09375 C 34.007812 -30.5 33.457031 -30.703125 32.8125 -30.703125 C 31.882812 -30.703125 30.9375 -30.304688 29.96875 -29.515625 C 29 -28.734375 28.191406 -27.484375 27.546875 -25.765625 L 22.1875 -8.421875 C 21.976562 -7.828125 21.875 -7.257812 21.875 -6.71875 C 21.875 -6.070312 22.007812 -5.546875 22.28125 -5.140625 C 22.550781 -4.734375 22.925781 -4.316406 23.40625 -3.890625 C 23.78125 -3.566406 24.050781 -3.269531 24.21875 -3 C 24.382812 -2.726562 24.410156 -2.40625 24.296875 -2.03125 C 24.078125 -1.320312 23.5625 -0.804688 22.75 -0.484375 C 21.945312 -0.160156 20.679688 0 18.953125 0 L 0.484375 0 C -0.921875 0 -1.929688 -0.226562 -2.546875 -0.6875 C -3.171875 -1.144531 -3.398438 -1.753906 -3.234375 -2.515625 C -3.023438 -3.160156 -2.457031 -3.726562 -1.53125 -4.21875 C -0.726562 -4.644531 -0.0546875 -5.15625 0.484375 -5.75 C 1.023438 -6.34375 1.484375 -7.289062 1.859375 -8.59375 L 9.078125 -32 C 9.179688 -32.269531 9.234375 -32.644531 9.234375 -33.125 C 9.234375 -33.71875 9.109375 -34.175781 8.859375 -34.5 C 8.617188 -34.820312 8.226562 -35.226562 7.6875 -35.71875 C 7.15625 -36.15625 6.78125 -36.535156 6.5625 -36.859375 C 6.34375 -37.179688 6.316406 -37.613281 6.484375 -38.15625 C 6.804688 -39.394531 8.503906 -40.484375 11.578125 -41.421875 C 14.660156 -42.367188 17.875 -42.84375 21.21875 -42.84375 C 23.863281 -42.84375 25.957031 -42.113281 27.5 -40.65625 C 29.039062 -39.195312 29.785156 -37.203125 29.734375 -34.671875 C 31.941406 -37.742188 34.273438 -39.875 36.734375 -41.0625 C 39.191406 -42.25 41.851562 -42.84375 44.71875 -42.84375 C 47.84375 -42.84375 50.390625 -41.9375 52.359375 -40.125 C 54.335938 -38.320312 55.429688 -35.960938 55.640625 -33.046875 C 57.960938 -36.722656 60.445312 -39.273438 63.09375 -40.703125 C 65.738281 -42.128906 68.628906 -42.84375 71.765625 -42.84375 C 75.054688 -42.84375 77.710938 -41.84375 79.734375 -39.84375 C 81.765625 -37.851562 82.78125 -35.265625 82.78125 -32.078125 C 82.78125 -30.398438 82.507812 -28.753906 81.96875 -27.140625 Z M 77.03125 -11.171875 "/></g></g></g><g fill="#00adef" fill-opacity="1"><g transform="translate(207.052749, 211.124986)"><g><path d="M 41.3125 -43.171875 C 45.300781 -43.171875 48.5 -41.738281 50.90625 -38.875 C 53.3125 -36.019531 54.515625 -32.242188 54.515625 -27.546875 C 54.515625 -25.109375 54.21875 -22.726562 53.625 -20.40625 C 51.894531 -13.445312 48.9375 -8.179688 44.75 -4.609375 C 40.5625 -1.046875 35.742188 0.734375 30.296875 0.734375 C 27.210938 0.734375 24.550781 0.207031 22.3125 -0.84375 C 20.070312 -1.90625 18.273438 -3.40625 16.921875 -5.34375 L 14.015625 -2.828125 C 12.878906 -1.859375 11.769531 -1.144531 10.6875 -0.6875 C 9.613281 -0.226562 8.375 0 6.96875 0 L 3.40625 0 C 2.050781 0 1.007812 -0.28125 0.28125 -0.84375 C -0.445312 -1.414062 -0.8125 -2.242188 -0.8125 -3.328125 C -0.8125 -3.804688 -0.726562 -4.367188 -0.5625 -5.015625 L 12.953125 -49 C 13.117188 -49.488281 13.203125 -49.894531 13.203125 -50.21875 C 13.203125 -51.132812 12.632812 -52 11.5 -52.8125 C 10.957031 -53.300781 10.578125 -53.691406 10.359375 -53.984375 C 10.148438 -54.285156 10.125 -54.675781 10.28125 -55.15625 C 10.664062 -56.40625 12.378906 -57.5 15.421875 -58.4375 C 18.472656 -59.382812 21.675781 -59.859375 25.03125 -59.859375 C 28.164062 -59.859375 30.472656 -59.25 31.953125 -58.03125 C 33.441406 -56.820312 34.1875 -55.191406 34.1875 -53.140625 C 34.1875 -52.003906 33.992188 -50.867188 33.609375 -49.734375 L 30.21875 -38.71875 C 33.34375 -41.6875 37.039062 -43.171875 41.3125 -43.171875 Z M 32.15625 -20.890625 C 33.238281 -24.566406 33.78125 -27.539062 33.78125 -29.8125 C 33.78125 -32.289062 33.050781 -33.53125 31.59375 -33.53125 C 30.289062 -33.53125 29.070312 -32.859375 27.9375 -31.515625 L 22.6875 -14.34375 L 22.1875 -12.796875 C 21.914062 -11.984375 21.78125 -11.144531 21.78125 -10.28125 C 21.78125 -8.394531 22.675781 -7.453125 24.46875 -7.453125 C 25.757812 -7.453125 27 -8.394531 28.1875 -10.28125 C 29.375 -12.175781 30.695312 -15.710938 32.15625 -20.890625 Z M 32.15625 -20.890625 "/></g></g></g><g fill="#00adef" fill-opacity="1"><g transform="translate(261.881778, 211.124986)"><g><path d="M 27.453125 -43.25 C 34.316406 -43.25 39.285156 -42.15625 42.359375 -39.96875 C 45.441406 -37.78125 46.984375 -34.988281 46.984375 -31.59375 C 46.984375 -30.5625 46.875 -29.613281 46.65625 -28.75 C 45.84375 -25.1875 43.585938 -22.632812 39.890625 -21.09375 C 36.191406 -19.5625 31.832031 -18.796875 26.8125 -18.796875 C 24.269531 -18.796875 21.894531 -18.957031 19.6875 -19.28125 C 19.632812 -16.46875 20.390625 -14.492188 21.953125 -13.359375 C 23.515625 -12.222656 25.703125 -11.65625 28.515625 -11.65625 C 29.804688 -11.65625 31.046875 -11.804688 32.234375 -12.109375 C 33.421875 -12.410156 34.9375 -12.859375 36.78125 -13.453125 C 38.289062 -13.984375 39.316406 -14.25 39.859375 -14.25 C 40.453125 -14.25 40.75 -13.898438 40.75 -13.203125 C 40.800781 -11.316406 40.097656 -9.332031 38.640625 -7.25 C 37.179688 -5.164062 35.019531 -3.394531 32.15625 -1.9375 C 29.289062 -0.476562 25.832031 0.25 21.78125 0.25 C 15.789062 0.25 10.878906 -1.257812 7.046875 -4.28125 C 3.210938 -7.3125 1.296875 -11.71875 1.296875 -17.5 C 1.296875 -19.113281 1.507812 -21.003906 1.9375 -23.171875 C 3.289062 -29.804688 6.25 -34.8125 10.8125 -38.1875 C 15.375 -41.5625 20.921875 -43.25 27.453125 -43.25 Z M 20.25 -24.140625 C 20.46875 -24.085938 20.765625 -24.0625 21.140625 -24.0625 C 23.410156 -24.0625 25.140625 -25.113281 26.328125 -27.21875 C 27.515625 -29.320312 28.082031 -31.671875 28.03125 -34.265625 C 27.96875 -35.773438 27.535156 -36.53125 26.734375 -36.53125 C 26.140625 -36.53125 25.4375 -36.054688 24.625 -35.109375 C 23.8125 -34.171875 23.015625 -32.753906 22.234375 -30.859375 C 21.453125 -28.972656 20.789062 -26.734375 20.25 -24.140625 Z M 20.25 -24.140625 "/></g></g></g><g fill="#00adef" fill-opacity="1"><g transform="translate(307.235168, 211.124986)"><g><path d="M 45.28125 -11.65625 C 45.164062 -11.226562 45.109375 -10.929688 45.109375 -10.765625 C 45.109375 -10.390625 45.21875 -10.09375 45.4375 -9.875 C 45.65625 -9.664062 45.925781 -9.5625 46.25 -9.5625 C 46.894531 -9.5625 47.445312 -9.84375 47.90625 -10.40625 C 48.363281 -10.976562 48.675781 -11.265625 48.84375 -11.265625 C 49.113281 -11.265625 49.328125 -11.070312 49.484375 -10.6875 C 49.648438 -10.3125 49.734375 -9.878906 49.734375 -9.390625 C 49.785156 -7.929688 49.226562 -6.445312 48.0625 -4.9375 C 46.90625 -3.425781 45.351562 -2.179688 43.40625 -1.203125 C 41.46875 -0.234375 39.363281 0.25 37.09375 0.25 C 34.394531 0.25 32.046875 -0.257812 30.046875 -1.28125 C 28.046875 -2.3125 26.671875 -3.664062 25.921875 -5.34375 C 24.460938 -3.457031 22.785156 -2.050781 20.890625 -1.125 C 19.003906 -0.207031 17.007812 0.25 14.90625 0.25 C 12.414062 0.25 10.101562 -0.367188 7.96875 -1.609375 C 5.84375 -2.859375 4.144531 -4.628906 2.875 -6.921875 C 1.601562 -9.222656 0.96875 -11.828125 0.96875 -14.734375 C 0.96875 -19.648438 1.898438 -24.28125 3.765625 -28.625 C 5.628906 -32.976562 8.234375 -36.488281 11.578125 -39.15625 C 14.929688 -41.832031 18.738281 -43.171875 23 -43.171875 C 25.320312 -43.171875 27.304688 -42.898438 28.953125 -42.359375 C 30.597656 -41.816406 32.097656 -41.007812 33.453125 -39.9375 L 36.203125 -49 C 36.367188 -49.488281 36.453125 -49.894531 36.453125 -50.21875 C 36.453125 -50.8125 36.300781 -51.296875 36 -51.671875 C 35.707031 -52.054688 35.316406 -52.4375 34.828125 -52.8125 C 34.285156 -53.238281 33.894531 -53.613281 33.65625 -53.9375 C 33.414062 -54.269531 33.375 -54.703125 33.53125 -55.234375 C 33.851562 -56.484375 35.550781 -57.566406 38.625 -58.484375 C 41.707031 -59.398438 44.925781 -59.859375 48.28125 -59.859375 C 51.40625 -59.859375 53.707031 -59.265625 55.1875 -58.078125 C 56.675781 -56.890625 57.421875 -55.269531 57.421875 -53.21875 C 57.421875 -52.03125 57.234375 -50.867188 56.859375 -49.734375 Z M 31.75 -34.421875 C 30.882812 -35.179688 29.941406 -35.5625 28.921875 -35.5625 C 27.347656 -35.5625 25.804688 -34.398438 24.296875 -32.078125 C 22.785156 -29.753906 21.570312 -26.945312 20.65625 -23.65625 C 19.738281 -20.363281 19.304688 -17.390625 19.359375 -14.734375 C 19.359375 -11.765625 20.332031 -10.28125 22.28125 -10.28125 C 22.976562 -10.28125 23.566406 -10.5625 24.046875 -11.125 C 24.535156 -11.695312 25 -12.632812 25.4375 -13.9375 Z M 31.75 -34.421875 "/></g></g></g></svg>